<svg width="27" height="27" viewBox="0 0 27 27" fill="none" xmlns="http://www.w3.org/2000/svg">
<path d="M24.1072 8.67847L2.89287 8.67847C2.35962 8.67847 1.92859 9.1095 1.92859 9.64275L1.92859 12.5356C1.92859 17.8527 6.25437 22.1785 11.5714 22.1785C15.5163 22.1785 18.9116 19.7938 20.4033 16.3928L22.1786 16.3928C23.7735 16.3928 25.0714 15.0948 25.0714 13.4999L25.0714 9.64275C25.0714 9.1095 24.6404 8.67847 24.1072 8.67847ZM23.1429 13.4999C23.1429 14.0322 22.7109 14.4642 22.1786 14.4642H21.0195C21.1468 13.8413 21.2143 13.1961 21.2143 12.5356L21.2143 10.607L23.1429 10.607L23.1429 13.4999Z" fill="#171A1F"/>
<path d="M20.25 23.1428L2.89287 23.1428C2.35962 23.1428 1.92859 23.5739 1.92859 24.1071C1.92859 24.6404 2.35962 25.0714 2.89287 25.0714L20.25 25.0714C20.7833 25.0714 21.2143 24.6404 21.2143 24.1071C21.2143 23.5739 20.7833 23.1428 20.25 23.1428Z" fill="#171A1F"/>
<path d="M7.71428 2.89282L5.78571 2.89282L5.78571 6.74997L7.71428 6.74997L7.71428 2.89282Z" fill="#171A1F"/>
<path d="M12.5357 1.92847L10.6071 1.92847L10.6071 5.78561L12.5357 5.78561L12.5357 1.92847Z" fill="#171A1F"/>
<path d="M17.3572 2.89282L15.4286 2.89282L15.4286 6.74997L17.3572 6.74997L17.3572 2.89282Z" fill="#171A1F"/>
</svg>
