<svg width="19" height="19" viewBox="0 0 19 19" fill="none" xmlns="http://www.w3.org/2000/svg">
<g clip-path="url(#clip0_4_67)">
<path d="M9.89233 0.78125C5.07593 0.78125 1.17358 4.68359 1.17358 9.5C1.17358 14.3164 5.07593 18.2188 9.89233 18.2188C14.7087 18.2188 18.6111 14.3164 18.6111 9.5C18.6111 4.68359 14.7087 0.78125 9.89233 0.78125ZM13.1439 11.7852L12.4408 12.6641C12.3947 12.7218 12.3376 12.7698 12.2729 12.8054C12.2082 12.8411 12.1371 12.8636 12.0637 12.8718C11.9903 12.8799 11.916 12.8736 11.845 12.853C11.774 12.8324 11.7078 12.7981 11.6501 12.752L9.29468 11.004C9.1301 10.8722 8.99725 10.7051 8.90597 10.5151C8.81469 10.325 8.76731 10.1169 8.76733 9.90605V4.4375C8.76733 4.28832 8.8266 4.14524 8.93209 4.03975C9.03758 3.93426 9.18065 3.875 9.32983 3.875H10.4548C10.604 3.875 10.7471 3.93426 10.8526 4.03975C10.9581 4.14524 11.0173 4.28832 11.0173 4.4375V9.5L13.0564 10.9941C13.1141 11.0403 13.1622 11.0974 13.1978 11.1622C13.2334 11.2269 13.256 11.298 13.2641 11.3715C13.2722 11.445 13.2658 11.5193 13.2452 11.5903C13.2246 11.6613 13.1902 11.7275 13.1439 11.7852Z" fill="white"/>
</g>
<defs>
<clipPath id="clip0_4_67">
<rect width="18" height="18" fill="white" transform="translate(0.892334 0.5)"/>
</clipPath>
</defs>
</svg>
