<svg width="27" height="27" viewBox="0 0 27 27" fill="none" xmlns="http://www.w3.org/2000/svg">
<path d="M25.0714 6.36434C24.2036 6.75006 23.3357 7.03934 22.3714 7.13577C23.3357 6.5572 24.1072 5.59291 24.4929 4.5322C23.5286 5.11077 22.5643 5.49648 21.5036 5.68934C20.6357 4.72506 19.3822 4.14648 18.0322 4.14648C15.4286 4.14648 13.3072 6.26791 13.3072 8.87148C13.3072 9.2572 13.3072 9.64291 13.4036 9.9322C9.35359 9.73934 5.88216 7.81077 3.56787 4.91791C3.08573 5.68934 2.89287 6.46077 2.89287 7.32863C2.89287 8.96791 3.76073 10.4143 5.0143 11.2822C4.24287 11.2822 3.47145 11.0893 2.89287 10.7036C2.89287 10.7036 2.89287 10.7036 2.89287 10.8001C2.89287 13.1143 4.53216 15.0429 6.65359 15.4286C6.26787 15.5251 5.88216 15.6215 5.40002 15.6215C5.11073 15.6215 4.82145 15.6215 4.53216 15.5251C5.11073 17.4536 6.84645 18.8036 8.96787 18.8036C7.32859 20.0572 5.30359 20.8286 3.08573 20.8286C2.70002 20.8286 2.3143 20.8286 1.92859 20.7322C4.05002 22.0822 6.55716 22.8536 9.16073 22.8536C17.9357 22.8536 22.6607 15.6215 22.6607 9.35363C22.6607 9.16077 22.6607 8.96791 22.6607 8.77506C23.625 8.10006 24.3964 7.2322 25.0714 6.36434Z" fill="#171A1F"/>
</svg>
