<svg width="18" height="18" viewBox="0 0 18 18" fill="none" xmlns="http://www.w3.org/2000/svg">
<path d="M8.71875 0C3.90234 0 0 3.90234 0 8.71875C0 13.5352 3.90234 17.4375 8.71875 17.4375C13.5352 17.4375 17.4375 13.5352 17.4375 8.71875C17.4375 3.90234 13.5352 0 8.71875 0ZM11.9704 11.0039L11.2672 11.8828C11.2211 11.9405 11.164 11.9885 11.0993 12.0242C11.0346 12.0598 10.9635 12.0824 10.8901 12.0905C10.8167 12.0987 10.7424 12.0923 10.6714 12.0717C10.6005 12.0512 10.5342 12.0169 10.4766 11.9707L8.12109 10.2227C7.95651 10.091 7.82367 9.92387 7.73239 9.73383C7.6411 9.54378 7.59372 9.33564 7.59375 9.1248V3.65625C7.59375 3.50707 7.65301 3.36399 7.7585 3.2585C7.86399 3.15301 8.00707 3.09375 8.15625 3.09375H9.28125C9.43043 3.09375 9.57351 3.15301 9.679 3.2585C9.78449 3.36399 9.84375 3.50707 9.84375 3.65625V8.71875L11.8828 10.2129C11.9405 10.2591 11.9886 10.3162 12.0242 10.3809C12.0599 10.4457 12.0824 10.5168 12.0905 10.5903C12.0986 10.6637 12.0922 10.7381 12.0716 10.809C12.051 10.88 12.0166 10.9462 11.9704 11.0039Z" fill="white"/>
</svg>
